{"accessors":[{"bufferView":2,"componentType":5126,"count":12597,"max":[144.61386108398438,290.0634765625,88.97634887695312],"min":[-56.09709167480469,186.83587646484375,-50.58059310913086],"type":"VEC3"},{"bufferView":2,"byteOffset":151164,"componentType":5126,"count":12597,"max":[0.9999272227287292,0.892936110496521,0.9997096061706543],"min":[-0.9999272227287292,-0.999502420425415,-0.9999876618385315],"type":"VEC3"},{"bufferView":3,"componentType":5126,"count":12597,"max":[0.9991737008094788,0.9997899532318115,0.9999834299087524,1],"min":[-0.9991455078125,-0.999925971031189,-0.999966025352478,-1],"type":"VEC4"},{"bufferView":1,"componentType":5126,"count":12597,"max":[1,1],"min":[0,0],"type":"VEC2"},{"bufferView":0,"componentType":5125,"count":55728,"max":[12596],"min":[0],"type":"SCALAR"},{"bufferView":2,"byteOffset":302328,"componentType":5126,"count":2061,"max":[142.53890991210938,266.8448181152344,81.88487243652344],"min":[-66.57235717773438,0,-59.71697998046875],"type":"VEC3"},{"bufferView":2,"byteOffset":327060,"componentType":5126,"count":2061,"max":[0.9990909099578857,0.9743700623512268,0.9976105093955994],"min":[-0.9999719858169556,-0.9999598264694214,-0.999941349029541],"type":"VEC3"},{"bufferView":3,"byteOffset":201552,"componentType":5126,"count":2061,"max":[0.9976340532302856,0.9108540415763855,1,1],"min":[-0.9998313784599304,-0.9478402733802795,-0.9999743103981018,-1],"type":"VEC4"},{"bufferView":1,"byteOffset":100776,"componentType":5126,"count":2061,"max":[1,1],"min":[0,0],"type":"VEC2"},{"bufferView":0,"byteOffset":222912,"componentType":5125,"count":10449,"max":[2060],"min":[0],"type":"SCALAR"}],"asset":{"extras":{"author":"spencerlindsay (https://sketchfab.com/spencerlindsay)","license":"CC-BY-4.0 (http://creativecommons.org/licenses/by/4.0/)","source":"https://sketchfab.com/3d-models/torch-roses-84878e9b372545ab9319272a5662c9de","title":"Torch Roses"},"generator":"Sketchfab-5.0.1","version":"2.0"},"bufferViews":[{"buffer":0,"byteLength":264708,"byteOffset":0,"name":"floatBufferViews","target":34963},{"buffer":0,"byteLength":117264,"byteOffset":264708,"byteStride":8,"name":"floatBufferViews","target":34962},{"buffer":0,"byteLength":351792,"byteOffset":381972,"byteStride":12,"name":"floatBufferViews","target":34962},{"buffer":0,"byteLength":234528,"byteOffset":733764,"byteStride":16,"name":"floatBufferViews","target":34962}],"buffers":[{"byteLength":968292,"uri":"data:application/octet-stream;base64,"}],"materials":[{"doubleSided":true,"emissiveFactor":[0,0,0],"name":"material","pbrMetallicRoughness":{"baseColorFactor":[1,0.0239699116,0,1],"metallicFactor":0.3370807927,"roughnessFactor":0.6053734756}},{"doubleSided":true,"emissiveFactor":[0,0,0],"name":"Mat.1","pbrMetallicRoughness":{"baseColorFactor":[0.0831974967,0.310345886,0.0166336,1],"metallicFactor":0.2943978659,"roughnessFactor":0.501714939}}],"meshes":[{"name":"roses_Mat_0","primitives":[{"attributes":{"NORMAL":1,"POSITION":0,"TANGENT":2,"TEXCOORD_0":3},"indices":4,"material":0,"mode":4}]},{"name":"stems_Mat.1_0","primitives":[{"attributes":{"NORMAL":6,"POSITION":5,"TANGENT":7,"TEXCOORD_0":8},"indices":9,"material":1,"mode":4}]}],"nodes":[{"children":[1],"name":"RootNode (gltf orientation matrix)","rotation":[-0.7071067811865475,0,0,0.7071067811865476]},{"children":[2],"name":"RootNode (model correction matrix)"},{"children":[3],"matrix":[1,0,0,0,0,0,1,0,0,-1,0,0,0,0,0,1],"name":"5f809d58108e43e987fe05c839c66f4f.fbx"},{"children":[4],"name":"RootNode"},{"children":[5,7],"name":"roseModel"},{"children":[6],"name":"roses"},{"mesh":0,"name":"roses_Mat_0"},{"children":[8],"name":"stems"},{"mesh":1,"name":"stems_Mat.1_0"}],"scene":0,"scenes":[{"name":"OSG_Scene","nodes":[0]}]}